<svg width="222" height="39" viewBox="0 0 222 39" fill="none" xmlns="http://www.w3.org/2000/svg">
<path d="M16.043 26.8064C13.8667 25.998 11.6281 25.8737 9.57614 26.4333C8.14596 26.8064 6.77796 27.5526 5.53432 28.4853L4.66376 29.2315L4.41504 29.4802L4.97467 29.9777C5.03685 29.9777 5.03686 30.0399 5.09904 30.102C5.22341 30.2264 5.34778 30.2886 5.53432 30.4129L5.9074 30.6617L6.28049 30.3508C6.34268 30.2886 6.46704 30.1642 6.5914 30.102C7.71068 29.1693 8.95431 28.5475 10.2601 28.2366C11.939 27.8013 13.7423 27.8635 15.5456 28.5475C17.0379 29.1071 20.0849 29.7911 23.7536 28.2366L23.878 28.1744L24.0645 27.9879C24.0645 27.9257 24.1267 27.9257 24.1889 27.8635C24.4998 27.4904 24.8107 27.1173 25.0594 26.682L26.303 24.7544L24.3132 25.8737C21.3907 27.4904 18.7169 27.8013 16.043 26.8064Z" fill="#39BE00"/>
<path d="M7.52364 20.0906C9.20255 19.6553 11.0058 19.7175 12.8091 20.4015C14.7989 21.1477 19.8978 22.2048 25.6186 17.0437L26.5513 16.111L26.6135 16.0488L26.8622 15.8001L26.7378 15.4891C26.6756 15.2404 26.5513 14.9295 26.4269 14.6186L26.116 13.748L25.4942 14.3699C25.432 14.4942 25.3076 14.5564 25.1833 14.6808C22.4473 17.479 18.2189 20.3393 13.3687 18.5982C11.1924 17.7899 8.95382 17.6655 6.90182 18.2251C4.91201 18.7848 3.17091 19.8419 1.55418 21.3342V21.2721L0.621456 22.267C0.621456 22.3291 0.559286 22.3292 0.497104 22.3913L0.310547 22.5779L0.372732 22.8266C0.434914 23.1375 0.559274 23.4484 0.621456 23.7593L0.994551 24.7542L1.61637 23.9459C1.67855 23.8215 1.80291 23.7593 1.86509 23.635C3.17091 22.4535 4.97419 20.7746 7.52364 20.0906Z" fill="#39BE00"/>
<path d="M1.49238 18.9715C2.92256 17.4792 4.53928 16.5464 6.28037 16.049C7.95928 15.6137 9.76255 15.6759 11.5658 16.3599C17.1622 18.4119 22.0124 15.0541 24.1266 13.2508L24.9349 12.4424L25.2458 12.1937L24.9971 11.8206C24.8106 11.6341 24.6862 11.3854 24.4997 11.1366L24.1266 10.6392L23.6913 11.0744C23.6291 11.1366 23.5047 11.261 23.4426 11.3232C20.8309 13.8104 16.7891 16.3599 12.1876 14.6188C10.0113 13.8104 7.77273 13.6861 5.72073 14.2457C4.41492 14.6188 3.17128 15.2406 1.92764 16.049L0.621818 17.1061C0.497455 17.2304 0.435273 17.2926 0.310909 17.417L0.186557 17.5413V17.7279C0.124375 18.1632 0.124367 18.5984 0.0621856 18.9715L0 20.5261L1.0571 19.4068C1.18146 19.2824 1.30583 19.0959 1.49238 18.9715Z" fill="#39BE00"/>
<path d="M17.8466 31.0349L17.7222 31.408L17.8466 31.0349C17.66 30.9727 17.5357 30.9105 17.3491 30.8483C15.1728 30.04 12.9342 29.9156 10.8822 30.4753C10.4469 30.5996 10.0117 30.724 9.57639 30.9105L8.08401 31.5945L7.71094 31.7811L8.95457 32.2163C9.32766 32.3407 9.70075 32.4651 10.0738 32.5894L10.2604 32.6516L10.4469 32.5894C10.6335 32.5273 10.82 32.4029 11.0066 32.4029C11.1309 32.4029 11.2553 32.3407 11.3797 32.2785C12.872 31.9054 14.4887 31.9054 16.2298 32.4651C16.4164 32.5272 16.5408 32.5894 16.7273 32.6516L17.0382 32.776L17.2247 32.7138C17.66 32.5894 18.1575 32.4651 18.5306 32.2785L20.2717 31.6567L18.4684 31.2214C18.2818 31.1592 18.0331 31.0971 17.8466 31.0349Z" fill="#39BE00"/>
<path d="M27.3597 18.1631L26.427 19.0958C26.3027 19.2202 26.1783 19.3445 26.0539 19.4689C23.5045 21.894 19.4005 24.5056 14.799 22.7645C12.6227 21.9562 10.3841 21.8318 8.33213 22.3915C6.40449 22.9511 4.66338 23.946 3.10884 25.4384L2.30048 26.3089L2.05176 26.6198L2.30048 26.9929C2.48703 27.2416 2.6114 27.4282 2.73576 27.6769L3.10884 28.2365L3.54412 27.6769C3.6063 27.6147 3.73066 27.4904 3.79284 27.4282C5.2852 25.8114 6.90193 24.8165 8.76739 24.3191C10.4463 23.8838 12.2496 23.946 14.0528 24.63C15.6074 25.1896 17.2241 25.3762 18.8408 25.1896C21.7012 24.8787 24.5616 23.262 26.6758 21.4587C26.8001 21.3344 26.9245 21.2722 27.0488 21.1478L27.2354 20.9613V20.7747C27.2354 20.4016 27.2976 19.9664 27.2976 19.5933L27.3597 18.1631Z" fill="#39BE00"/>
<path d="M3.73045 12.4423L3.54391 12.0692L3.73045 12.4423C4.10354 12.2557 4.53883 12.1313 4.91192 12.007C6.59083 11.5717 8.3941 11.6339 10.1974 12.3179C11.3788 12.7532 12.5603 12.9397 13.8661 12.9397C16.4777 12.9397 19.0894 12.007 21.5145 10.2037L22.4472 9.45752L22.7581 9.20879L22.1985 8.77351C22.0119 8.58697 21.7632 8.40043 21.5145 8.27607L21.1414 8.02734L20.8305 8.27607C20.7061 8.33825 20.6439 8.46261 20.5195 8.52479C17.2239 11.0121 13.9283 11.6961 10.8192 10.5146C8.58065 9.70625 6.34209 9.51971 4.10355 10.2037C3.917 10.2659 3.73046 10.3281 3.48173 10.3902L3.35738 10.4524L3.17082 10.639C3.17082 10.7012 3.10865 10.7012 3.04647 10.7633C2.79774 11.1364 2.48682 11.4473 2.23809 11.8204L1.05664 13.6237L2.98428 12.6288C3.29519 12.6288 3.54391 12.5044 3.73045 12.4423Z" fill="#39BE00"/>
<path d="M8.82967 8.21393L9.01621 8.27611C9.82457 8.58702 11.0682 8.89793 12.6228 8.89793C14.2395 8.89793 15.794 8.52484 17.3486 7.90302L19.2762 6.97029L17.9704 6.53503C17.5973 6.41067 17.2242 6.2863 16.7889 6.22412H16.6024L16.4159 6.28629C16.2293 6.34847 16.0428 6.47285 15.8562 6.53503C13.9908 7.21903 12.1253 7.34339 10.322 6.84594C10.1355 6.78376 9.94894 6.72156 9.7624 6.65938L9.57586 6.5972L9.3893 6.65938C9.01621 6.78375 8.64313 6.90812 8.27004 7.09466L6.83984 7.71648L8.33222 8.15174C8.45659 8.08956 8.64312 8.15175 8.82967 8.21393Z" fill="#39BE00"/>
<path d="M49.3241 30.28C47.1028 30.28 45.2361 29.8693 43.7241 29.048C42.2121 28.2267 41.0735 27.06 40.3081 25.548C39.5428 24.036 39.1601 22.244 39.1601 20.172C39.1601 18.0813 39.5708 16.28 40.3921 14.768C41.2135 13.2373 42.3895 12.0613 43.9201 11.24C45.4695 10.4 47.3268 9.98 49.4921 9.98C50.9295 9.98 52.1895 10.176 53.2721 10.568C54.3548 10.9413 55.3068 11.492 56.1281 12.22L54.9241 15.02C54.3268 14.5533 53.7575 14.18 53.2161 13.9C52.6748 13.62 52.1148 13.424 51.5361 13.312C50.9575 13.1813 50.2855 13.116 49.5201 13.116C47.3548 13.116 45.7121 13.732 44.5921 14.964C43.4908 16.1773 42.9401 17.9227 42.9401 20.2C42.9401 22.4773 43.4628 24.2133 44.5081 25.408C45.5721 26.6027 47.2335 27.2 49.4921 27.2C50.2575 27.2 51.0228 27.1253 51.7881 26.976C52.5721 26.8267 53.3375 26.612 54.0841 26.332L53.4121 27.844V21.936H48.7921V19.304H56.4081V28.796C55.4935 29.2627 54.4015 29.6267 53.1321 29.888C51.8628 30.1493 50.5935 30.28 49.3241 30.28ZM60.2227 30V19.472C60.2227 18.8747 60.204 18.268 60.1667 17.652C60.148 17.036 60.1013 16.4387 60.0267 15.86H63.4147L63.8067 19.724H63.2467C63.4333 18.7907 63.7413 18.016 64.1707 17.4C64.6187 16.784 65.16 16.3267 65.7947 16.028C66.4293 15.7293 67.12 15.58 67.8667 15.58C68.2027 15.58 68.4733 15.5987 68.6787 15.636C68.884 15.6547 69.0893 15.7013 69.2947 15.776L69.2667 18.856C68.912 18.7067 68.604 18.6133 68.3427 18.576C68.1 18.5387 67.792 18.52 67.4187 18.52C66.616 18.52 65.9347 18.688 65.3747 19.024C64.8333 19.36 64.4227 19.8267 64.1427 20.424C63.8813 21.0213 63.7507 21.7027 63.7507 22.468V30H60.2227ZM77.4081 30.28C75.9521 30.28 74.6921 29.9813 73.6281 29.384C72.5641 28.7867 71.7335 27.9373 71.1361 26.836C70.5575 25.7347 70.2681 24.428 70.2681 22.916C70.2681 21.404 70.5575 20.1067 71.1361 19.024C71.7335 17.9227 72.5641 17.0733 73.6281 16.476C74.6921 15.8787 75.9521 15.58 77.4081 15.58C78.8641 15.58 80.1241 15.8787 81.1881 16.476C82.2708 17.0733 83.1015 17.9227 83.6801 19.024C84.2775 20.1067 84.5761 21.404 84.5761 22.916C84.5761 24.428 84.2775 25.7347 83.6801 26.836C83.1015 27.9373 82.2708 28.7867 81.1881 29.384C80.1241 29.9813 78.8641 30.28 77.4081 30.28ZM77.4081 27.592C78.5095 27.592 79.3868 27.2093 80.0401 26.444C80.6935 25.66 81.0201 24.484 81.0201 22.916C81.0201 21.348 80.6935 20.1813 80.0401 19.416C79.3868 18.6507 78.5095 18.268 77.4081 18.268C76.3068 18.268 75.4295 18.6507 74.7761 19.416C74.1228 20.1813 73.7961 21.348 73.7961 22.916C73.7961 24.484 74.1228 25.66 74.7761 26.444C75.4295 27.2093 76.3068 27.592 77.4081 27.592ZM91.241 30L85.725 15.86H89.337L93.313 26.864H92.585L96.617 15.86H99.109L103.113 26.864H102.469L106.417 15.86H109.833L104.317 30H101.237L97.009 18.744H98.493L94.349 30H91.241ZM120.003 30V10.26H133.023V13.088H123.615V18.688H132.379V21.516H123.615V30H120.003ZM135.747 30V15.86H139.247V30H135.747ZM135.551 13.2V9.784H139.443V13.2H135.551ZM143.048 30V19.388C143.048 18.8093 143.029 18.2213 142.992 17.624C142.954 17.0267 142.898 16.4387 142.824 15.86H146.212L146.492 18.66H146.156C146.604 17.6707 147.266 16.9147 148.144 16.392C149.021 15.8507 150.038 15.58 151.196 15.58C152.857 15.58 154.108 16.0467 154.948 16.98C155.788 17.9133 156.208 19.3693 156.208 21.348V30H152.708V21.516C152.708 20.3773 152.484 19.5653 152.036 19.08C151.606 18.576 150.953 18.324 150.076 18.324C148.993 18.324 148.134 18.66 147.5 19.332C146.865 20.004 146.548 20.9 146.548 22.02V30H143.048ZM165.379 30.28C164.147 30.28 163.064 29.9907 162.131 29.412C161.197 28.8147 160.469 27.9653 159.947 26.864C159.424 25.7627 159.163 24.4467 159.163 22.916C159.163 21.3853 159.424 20.0787 159.947 18.996C160.469 17.8947 161.197 17.0547 162.131 16.476C163.064 15.8787 164.147 15.58 165.379 15.58C166.573 15.58 167.619 15.8787 168.515 16.476C169.429 17.0547 170.036 17.8387 170.335 18.828H170.027L170.335 15.86H173.695C173.639 16.4387 173.583 17.0267 173.527 17.624C173.489 18.2213 173.471 18.8093 173.471 19.388V30H169.999L169.971 27.088H170.307C170.008 28.0587 169.401 28.8333 168.487 29.412C167.572 29.9907 166.536 30.28 165.379 30.28ZM166.359 27.592C167.46 27.592 168.347 27.2093 169.019 26.444C169.691 25.66 170.027 24.484 170.027 22.916C170.027 21.348 169.691 20.1813 169.019 19.416C168.347 18.6507 167.46 18.268 166.359 18.268C165.257 18.268 164.371 18.6507 163.699 19.416C163.027 20.1813 162.691 21.348 162.691 22.916C162.691 24.484 163.017 25.66 163.671 26.444C164.343 27.2093 165.239 27.592 166.359 27.592ZM177.282 30V19.388C177.282 18.8093 177.263 18.2213 177.226 17.624C177.189 17.0267 177.133 16.4387 177.058 15.86H180.446L180.726 18.66H180.39C180.838 17.6707 181.501 16.9147 182.378 16.392C183.255 15.8507 184.273 15.58 185.43 15.58C187.091 15.58 188.342 16.0467 189.182 16.98C190.022 17.9133 190.442 19.3693 190.442 21.348V30H186.942V21.516C186.942 20.3773 186.718 19.5653 186.27 19.08C185.841 18.576 185.187 18.324 184.31 18.324C183.227 18.324 182.369 18.66 181.734 19.332C181.099 20.004 180.782 20.9 180.782 22.02V30H177.282ZM200.649 30.28C199.193 30.28 197.914 29.9813 196.813 29.384C195.73 28.7867 194.89 27.9373 194.293 26.836C193.696 25.716 193.397 24.3907 193.397 22.86C193.397 21.3293 193.696 20.0227 194.293 18.94C194.909 17.8573 195.758 17.0267 196.841 16.448C197.924 15.8693 199.193 15.58 200.649 15.58C201.582 15.58 202.488 15.7293 203.365 16.028C204.261 16.308 204.989 16.7187 205.549 17.26L204.485 19.696C203.981 19.2293 203.412 18.884 202.777 18.66C202.161 18.4173 201.554 18.296 200.957 18.296C199.706 18.296 198.726 18.688 198.017 19.472C197.326 20.256 196.981 21.3947 196.981 22.888C196.981 24.3813 197.326 25.5293 198.017 26.332C198.726 27.1347 199.706 27.536 200.957 27.536C201.536 27.536 202.133 27.424 202.749 27.2C203.384 26.976 203.962 26.6307 204.485 26.164L205.549 28.572C204.97 29.1133 204.233 29.5333 203.337 29.832C202.46 30.1307 201.564 30.28 200.649 30.28ZM214.821 30.28C212.45 30.28 210.593 29.6267 209.249 28.32C207.905 27.0133 207.233 25.2213 207.233 22.944C207.233 21.4693 207.522 20.1813 208.101 19.08C208.68 17.9787 209.482 17.12 210.509 16.504C211.554 15.888 212.768 15.58 214.149 15.58C215.512 15.58 216.65 15.8693 217.565 16.448C218.48 17.0267 219.17 17.8387 219.637 18.884C220.122 19.9293 220.365 21.152 220.365 22.552V23.476H210.061V21.628H217.873L217.397 22.02C217.397 20.7133 217.117 19.7147 216.557 19.024C216.016 18.3333 215.222 17.988 214.177 17.988C213.02 17.988 212.124 18.3987 211.489 19.22C210.873 20.0413 210.565 21.1893 210.565 22.664V23.028C210.565 24.5587 210.938 25.7067 211.685 26.472C212.45 27.2187 213.524 27.592 214.905 27.592C215.708 27.592 216.454 27.4893 217.145 27.284C217.854 27.06 218.526 26.7053 219.161 26.22L220.197 28.572C219.525 29.1133 218.722 29.5333 217.789 29.832C216.856 30.1307 215.866 30.28 214.821 30.28Z" fill="white"/>
</svg>
